#!OML:ASF E:\id_vita\Project 1\Capture day 1\Session 1\Female.ASF
:FULLY-SPECIFIED
:DEGREES
1165
root 21.6782 15.5834 2.44368 590.103 -86.5416 -536.795
lowerback 17.9904 -0.105313 -6.83734
upperback 6.858 -1.49651 3.28213
thorax -2.40714 -1.01776 7.72206
lowerneck -3.74381 3.496 -1.88343
upperneck -36.0548 4.78878 5.91892
head -11.3287 0.607657 2.41957
rclavicle -3.26007e-014 -1.51076e-014
rhumerus 1.38813 45.0428 -95.6136
rradius 93.8042
rwrist -20.8858
rhand -27.186 -12.0867
rfingers 7.12502
rthumb -0.599765 -42.0656
lclavicle -3.26007e-014 -1.51076e-014
lhumerus 58.2125 -2.15729 106.051
lradius 12.5704
lwrist -20.0926
lhand 6.35003 40.6067
lfingers 7.12502
lthumb 31.6568 67.8809
rfemur -80.4911 0.430134 45.1789
rtibia 37.3671
rfoot -11.4191 9.93015
rtoes 21.4774
lfemur -102.069 4.50335 -12.8907
ltibia 79.1887
lfoot -0.173201 0.12406
ltoes -6.81003
1166
root 21.7215 15.5979 2.43202 595.673 -86.702 -541.986
lowerback 17.5812 -0.153118 -7.04175
upperback 6.69155 -1.54863 3.32069
thorax -2.35238 -1.03585 7.88052
lowerneck -3.86353 3.37762 -1.94176
upperneck -35.9452 4.61755 5.97226
head -11.2536 0.539454 2.46062
rclavicle 4.77083e-015 1.68967e-014
rhumerus 0.767014 44.8334 -95.7583
rradius 94.1232
rwrist -20.9795
rhand -27.322 -12.2107
rfingers 7.12502
rthumb -0.731053 -42.1892
lclavicle 4.77083e-015 1.68967e-014
lhumerus 57.8214 -3.05239 105.021
lradius 12.993
lwrist -18.26
lhand 6.5265 40.971
lfingers 7.12502
lthumb 31.8249 68.2119
rfemur -80.7799 0.28492 45.3304
rtibia 36.5595
rfoot -12.9829 7.50604
rtoes 9.17026
lfemur -102.017 4.48969 -13.4311
ltibia 80.0489
lfoot 0.296741 0.416209
ltoes -6.9946
1167
root 21.7513 15.6259 2.43062 599.267 -86.7209 -545.73
lowerback 17.5425 -0.101262 -7.12459
upperback 6.74227 -1.49488 3.31313
thorax -2.28459 -1.01642 7.90778
lowerneck -4.16013 3.23149 -1.78946
upperneck -35.7447 4.35958 5.87056
head -11.0947 0.423356 2.41046
rclavicle -1.27222e-014 1.17283e-014
rhumerus 0.182113 44.4552 -95.7736
rradius 94.3912
rwrist -21.0705
rhand -27.451 -11.3536
rfingers 7.12502
rthumb -0.855636 -41.3317
lclavicle -1.27222e-014 1.17283e-014
lhumerus 57.601 -4.07858 104.019
lradius 13.3228
lwrist -16.5467
lhand 6.81058 41.4137
lfingers 7.12502
lthumb 32.0954 68.6005
rfemur -80.5009 -0.0866465 45.4578
rtibia 35.8137
rfoot -11.7534 8.78339
rtoes 13.802
lfemur -101.236 4.35679 -13.8932
ltibia 80.8872
lfoot 0.490063 1.0459
ltoes -4.58314
1168
root 21.7736 15.6829 2.42171 598.668 -86.5535 -545.907
lowerback 18.1275 0.0761265 -7.30189
upperback 6.97705 -1.35659 3.23539
thorax -2.36015 -0.964639 7.91787
lowerneck -4.07364 3.14473 -1.72165
upperneck -35.8715 4.22864 5.84859
head -11.1546 0.347989 2.40438
rclavicle -2.62396e-014 -2.37548e-014
rhumerus -0.390722 44.1656 -95.9153
rradius 94.7711
rwrist -20.917
rhand -27.4732 -11.2568
rfingers 7.12502
rthumb -0.877114 -41.2347
lclavicle -2.62396e-014 -2.37548e-014
lhumerus 57.4261 -4.72223 103.476
lradius 13.4771
lwrist -15.5501
lhand 6.9546 41.67
lfingers 7.12502
lthumb 32.2325 68.829
rfemur -79.3247 -0.525271 45.519
rtibia 34.9292
rfoot -10.8524 10.0256
rtoes 17.317
lfemur -99.5343 4.47663 -14.4768
ltibia 81.5918
lfoot 0.526365 1.61041
ltoes -1.75199
1169
root 21.8132 15.7089 2.40836 602.088 -86.5405 -549.347
lowerback 18.0784 0.0739199 -7.56667
upperback 6.93804 -1.39567 3.24235
thorax -2.35831 -0.984543 8.08667
lowerneck -3.86679 3.08369 -1.69932
upperneck -36.0173 4.13267 5.80424
head -11.2475 0.298082 2.39461
rclavicle -5.00937e-014 -4.86029e-014
rhumerus -1.03387 44.1954 -96.0476
rradius 95.2397
rwrist -20.9302
rhand -27.5904 -11.8414
rfingers 7.12502
rthumb -0.990286 -41.8189
lclavicle -5.00937e-014 -4.86029e-014
lhumerus 57.1366 -4.95627 103.396
lradius 13.6118
lwrist -14.9212
lhand 6.89326 41.8888
lfingers 7.12502
lthumb 32.1741 69.0597
rfemur -79.142 -0.665612 45.4884
rtibia 34.2304
rfoot -11.667 9.07721
rtoes 10.6616
lfemur -98.8617 4.55808 -15.2303
ltibia 82.3333
lfoot 0.73912 1.83356
ltoes -1.01798
1170
root 21.8256 15.76 2.40636 603.332 -86.5942 -551.543
lowerback 18.9478 0.129583 -7.48175
upperback 7.13193 -1.39207 3.21193
thorax -2.60683 -0.986616 8.03336
lowerneck -4.00214 3.01152 -1.58596
upperneck -35.9056 3.99805 5.72846
head -11.1647 0.235848 2.35295
rclavicle -2.0276e-014 4.1546e-014
rhumerus -1.52234 44.228 -96.0314
rradius 95.4999
rwrist -21.1615
rhand -27.5782 -12.191
rfingers 7.12502
rthumb -0.97851 -42.1685
lclavicle -2.0276e-014 4.1546e-014
lhumerus 56.8312 -5.35517 103.105
lradius 13.884
lwrist -14.0975
lhand 6.82896 42.1874
lfingers 7.12502
lthumb 32.1129 69.3707
rfemur -78.0106 -1.35081 45.5491
rtibia 33.67
rfoot -12.0749 8.78031
rtoes 7.41865
lfemur -96.8821 4.40988 -15.7306
ltibia 82.9865
lfoot 0.618541 2.11627
ltoes -2.16768
1171
root 21.8892 15.7431 2.39172 610.427 -87.0343 -557.338
lowerback 17.6645 -0.0936393 -7.36942
upperback 6.76708 -1.52987 3.37727
thorax -2.30254 -1.03828 8.13233
lowerneck -4.13984 2.96965 -1.61207
upperneck -35.8981 3.9269 5.73614
head -11.1329 0.205078 2.36707
rclavicle -3.29983e-014 -1.35174e-014
rhumerus -1.95861 44.0892 -96.0098
rradius 95.6154
rwrist -21.2661
rhand -27.5823 -12.1449
rfingers 7.12502
rthumb -0.982533 -42.1224
lclavicle -3.29983e-014 -1.35174e-014
lhumerus 56.605 -6.24937 102.067
lradius 14.2751
lwrist -12.5056
lhand 6.79455 42.3783
lfingers 7.12502
lthumb 32.0801 69.5681
rfemur -79.5509 -1.01851 45.8754
rtibia 33.4297
rfoot -11.4699 9.1568
rtoes 9.50298
lfemur -97.9859 4.4724 -16.3233
ltibia 83.7833
lfoot 0.936762 1.70289
ltoes -2.66863
